<svg xmlns="http://www.w3.org/2000/svg" width="24.5" height="24.5" viewBox="0 0 24.5 24.5">
  <g id="Grupo_125" data-name="Grupo 125" transform="translate(-2.25 -1.25)">
    <path id="Caminho_100" data-name="Caminho 100" d="M10,2V4.421" transform="translate(1.474 0)" fill="none" stroke="#f5f5f8" stroke-linecap="round" stroke-linejoin="round" stroke-width="1.5"/>
    <path id="Caminho_101" data-name="Caminho 101" d="M14,2V4.421" transform="translate(2.316 0)" fill="none" stroke="#f5f5f8" stroke-linecap="round" stroke-linejoin="round" stroke-width="1.5"/>
    <path id="Caminho_102" data-name="Caminho 102" d="M18.737,8a1.211,1.211,0,0,1,1.211,1.211v9.684a4.842,4.842,0,0,1-4.842,4.842H7.842A4.842,4.842,0,0,1,3,18.895V9.211A1.211,1.211,0,0,1,4.211,8H21.158a4.842,4.842,0,0,1,0,9.684H19.947" transform="translate(0 1.263)" fill="none" stroke="#f5f5f8" stroke-linecap="round" stroke-linejoin="round" stroke-width="1.5"/>
    <path id="Caminho_103" data-name="Caminho 103" d="M6,2V4.421" transform="translate(0.632 0)" fill="none" stroke="#f5f5f8" stroke-linecap="round" stroke-linejoin="round" stroke-width="1.5"/>
  </g>
</svg>
