<svg xmlns="http://www.w3.org/2000/svg" width="25.008" height="24.999" viewBox="0 0 25.008 24.999">
  <g id="Grupo_127" data-name="Grupo 127" transform="translate(-1.239 -1.255)">
    <path id="Caminho_107" data-name="Caminho 107" d="M4.176,9.778A4.7,4.7,0,0,1,9.793,4.173a4.7,4.7,0,0,1,7.92,0A4.7,4.7,0,0,1,23.329,9.79a4.7,4.7,0,0,1,0,7.92,4.7,4.7,0,0,1-5.605,5.617,4.7,4.7,0,0,1-7.932,0,4.7,4.7,0,0,1-5.617-5.605,4.7,4.7,0,0,1,0-7.943Z" transform="translate(0 0)" fill="none" stroke="#808191" stroke-linecap="round" stroke-linejoin="round" stroke-width="1.5"/>
    <path id="Caminho_108" data-name="Caminho 108" d="M17.4,8H10.35a2.35,2.35,0,1,0,0,4.7h4.7a2.35,2.35,0,1,1,0,4.7H8" transform="translate(1.052 1.05)" fill="none" stroke="#808191" stroke-linecap="round" stroke-linejoin="round" stroke-width="1.5"/>
    <path id="Caminho_109" data-name="Caminho 109" d="M12,20.1V6" transform="translate(1.753 0.699)" fill="none" stroke="#808191" stroke-linecap="round" stroke-linejoin="round" stroke-width="1.5"/>
  </g>
</svg>
