<svg xmlns="http://www.w3.org/2000/svg" width="32.679" height="24.768" viewBox="0 0 32.679 24.768">
  <path id="discord-mark-black" d="M27.683,2.074A27.027,27.027,0,0,0,20.941,0a18.522,18.522,0,0,0-.864,1.756,25.107,25.107,0,0,0-7.482,0A18.6,18.6,0,0,0,11.731,0,27.217,27.217,0,0,0,4.984,2.079,27.239,27.239,0,0,0,.139,20.617h0a27.176,27.176,0,0,0,8.269,4.151,19.971,19.971,0,0,0,1.771-2.856A17.586,17.586,0,0,1,7.39,20.581c.234-.17.463-.344.684-.514a19.424,19.424,0,0,0,16.532,0c.224.182.452.357.684.514A17.654,17.654,0,0,1,22.5,21.915a19.791,19.791,0,0,0,1.771,2.853,27.053,27.053,0,0,0,8.274-4.149h0A27.223,27.223,0,0,0,27.683,2.074ZM10.911,16.885a3.125,3.125,0,0,1-2.943-3.262,3.106,3.106,0,0,1,2.938-3.275,3.094,3.094,0,0,1,2.946,3.275A3.122,3.122,0,0,1,10.911,16.885Zm10.857,0a3.122,3.122,0,0,1-2.94-3.262,3.106,3.106,0,0,1,2.94-3.275,3.086,3.086,0,0,1,2.938,3.275A3.12,3.12,0,0,1,21.768,16.885Z" transform="translate(0)" fill="#121216"/>
</svg>
