<svg xmlns="http://www.w3.org/2000/svg" width="25.319" height="25.287" viewBox="0 0 25.319 25.287">
  <g id="Grupo_126" data-name="Grupo 126" transform="translate(-0.939 -1.25)">
    <path id="Caminho_104" data-name="Caminho 104" d="M12.391,15.7h2.348a2.348,2.348,0,0,0,0-4.7H11.217a1.97,1.97,0,0,0-1.643.7L3,18.043" transform="translate(0.174 1.565)" fill="none" stroke="#f5f5f8" stroke-linecap="round" stroke-linejoin="round" stroke-width="1.5"/>
    <path id="Caminho_105" data-name="Caminho 105" d="M7,22.922l1.878-1.643a1.97,1.97,0,0,1,1.643-.7h4.7A4.263,4.263,0,0,0,18.5,19.166L23.9,14a2.35,2.35,0,0,0-3.228-3.416l-4.93,4.578" transform="translate(0.869 1.381)" fill="none" stroke="#f5f5f8" stroke-linecap="round" stroke-linejoin="round" stroke-width="1.5"/>
    <path id="Caminho_106" data-name="Caminho 106" d="M2,16l7.043,7.043" transform="translate(0 2.434)" fill="none" stroke="#f5f5f8" stroke-linecap="round" stroke-linejoin="round" stroke-width="1.5"/>
    <circle id="Elipse_38" data-name="Elipse 38" cx="3.404" cy="3.404" r="3.404" transform="translate(15.03 6.813)" fill="none" stroke="#f5f5f8" stroke-linecap="round" stroke-linejoin="round" stroke-width="1.5"/>
    <circle id="Elipse_39" data-name="Elipse 39" cx="3.522" cy="3.522" r="3.522" transform="translate(3.174 2)" fill="none" stroke="#f5f5f8" stroke-linecap="round" stroke-linejoin="round" stroke-width="1.5"/>
  </g>
</svg>
