<svg xmlns="http://www.w3.org/2000/svg" width="26.693" height="26.248" viewBox="0 0 26.693 26.248">
  <path id="github-mark" d="M13.357,0A13.47,13.47,0,0,0,9.133,26.222c.664.134.907-.29.907-.646,0-.312-.022-1.381-.022-2.5-3.716.8-4.489-1.6-4.489-1.6a3.438,3.438,0,0,0-1.482-1.96c-1.216-.824.089-.824.089-.824a2.8,2.8,0,0,1,2.057,1.381,2.829,2.829,0,0,0,3.892,1.114,2.867,2.867,0,0,1,.84-1.8c-2.964-.312-6.082-1.47-6.082-6.639A5.268,5.268,0,0,1,6.214,9.134,4.895,4.895,0,0,1,6.347,5.57s1.128-.357,3.671,1.381a12.734,12.734,0,0,1,6.679,0C19.24,5.213,20.368,5.57,20.368,5.57A4.894,4.894,0,0,1,20.5,9.134a5.167,5.167,0,0,1,1.371,3.609c0,5.169-3.118,6.3-6.1,6.639a3.2,3.2,0,0,1,.907,2.5c0,1.8-.022,3.253-.022,3.7,0,.357.243.78.907.646A13.47,13.47,0,0,0,13.357,0Z" fill="#121216" fill-rule="evenodd"/>
</svg>
