<svg id="Grupo_117" data-name="Grupo 117" xmlns="http://www.w3.org/2000/svg" width="45.689" height="36.552" viewBox="0 0 45.689 36.552">
  <path id="Caminho_69" data-name="Caminho 69" d="M44.307,18.276a18.276,18.276,0,0,0-36.552,0h5.711c1.893,0,3.368-1.586,4.062-3.347a9.138,9.138,0,0,1,17.641,3.347Z" transform="translate(1.381 0)" fill="#9d78ff"/>
  <path id="Caminho_70" data-name="Caminho 70" d="M31.708,22.507A18.276,18.276,0,0,0,33.1,15.513h9.137a18.292,18.292,0,0,1-22.853,17.7,18.276,18.276,0,0,0,12.325-10.7Z" transform="translate(3.453 2.763)" fill="#f5f5f8"/>
  <path id="Caminho_71" data-name="Caminho 71" d="M0,15.513a18.276,18.276,0,0,0,36.552,0H30.84c-1.893,0-3.368,1.586-4.062,3.347q-.03.075-.061.15a9.138,9.138,0,0,1-17.58-3.5Z" transform="translate(0 2.763)" fill="#f33149"/>
  <path id="Caminho_72" data-name="Caminho 72" d="M0,18.276A18.292,18.292,0,0,1,22.854.578a18.276,18.276,0,0,0-13.717,17.7Z" transform="translate(0 0)" fill="#808191"/>
</svg>
