<svg xmlns="http://www.w3.org/2000/svg" width="140.962" height="151.942" viewBox="0 0 140.962 151.942">
  <g id="Grupo_150" data-name="Grupo 150" transform="translate(-1648.038 -462.966)">
    <g id="Grupo_149" data-name="Grupo 149" transform="translate(1648.589 463.461)">
      <path id="Caminho_107" data-name="Caminho 107" d="M14.632,46.948A27.176,27.176,0,0,1,47.107,14.541a27.176,27.176,0,0,1,45.791,0,27.176,27.176,0,0,1,32.475,32.475,27.176,27.176,0,0,1,0,45.791,27.176,27.176,0,0,1-32.407,32.475,27.176,27.176,0,0,1-45.859,0A27.176,27.176,0,0,1,14.632,92.876a27.176,27.176,0,0,1,0-45.927Z" transform="translate(0 0)" fill="none" stroke="#bdbec9" stroke-linecap="round" stroke-linejoin="round" stroke-width="5"/>
      <path id="Caminho_108" data-name="Caminho 108" d="M62.352,8H21.588a13.588,13.588,0,0,0,0,27.176H48.764a13.588,13.588,0,1,1,0,27.176H8" transform="translate(34.827 34.736)" fill="none" stroke="#bdbec9" stroke-linecap="round" stroke-linejoin="round" stroke-width="5"/>
      <path id="Caminho_109" data-name="Caminho 109" d="M12,87.528V6" transform="translate(58.003 23.148)" fill="none" stroke="#bdbec9" stroke-linecap="round" stroke-linejoin="round" stroke-width="5"/>
    </g>
    <line id="Linha_15" data-name="Linha 15" x2="127" y2="134" transform="translate(1650.578 478.5)" fill="none" stroke="#f0f1f5" stroke-width="7"/>
  </g>
</svg>
