<svg xmlns="http://www.w3.org/2000/svg" width="148.564" height="146.369" viewBox="0 0 148.564 146.369">
  <g id="Grupo_162" data-name="Grupo 162" transform="translate(-4263.446 -1790.5)">
    <g id="Grupo_161" data-name="Grupo 161" transform="translate(4266.986 1791)">
      <path id="Caminho_104" data-name="Caminho 104" d="M59.133,39.067H73.167a14.033,14.033,0,0,0,0-28.067H52.117c-4.21,0-7.718,1.4-9.823,4.21L3,53.1" transform="translate(6.017 54.15)" fill="none" stroke="#bdbec9" stroke-linecap="round" stroke-linejoin="round" stroke-width="5"/>
      <path id="Caminho_105" data-name="Caminho 105" d="M7,87.526,18.227,77.7c2.105-2.807,5.613-4.21,9.823-4.21H56.117c7.718,0,14.735-2.807,19.647-8.42L108.04,34.2a14.047,14.047,0,0,0-19.3-20.419L59.274,41.146" transform="translate(30.083 47.791)" fill="none" stroke="#bdbec9" stroke-linecap="round" stroke-linejoin="round" stroke-width="5"/>
      <path id="Caminho_106" data-name="Caminho 106" d="M2,16,44.1,58.1" transform="translate(0 84.234)" fill="none" stroke="#bdbec9" stroke-linecap="round" stroke-linejoin="round" stroke-width="5"/>
      <circle id="Elipse_38" data-name="Elipse 38" cx="20.348" cy="20.348" r="20.348" transform="translate(79.885 30.768)" fill="none" stroke="#bdbec9" stroke-linecap="round" stroke-linejoin="round" stroke-width="5"/>
      <circle id="Elipse_39" data-name="Elipse 39" cx="21.05" cy="21.05" r="21.05" transform="translate(9.017 2)" fill="none" stroke="#bdbec9" stroke-linecap="round" stroke-linejoin="round" stroke-width="5"/>
    </g>
    <line id="Linha_18" data-name="Linha 18" x2="127" y2="134" transform="translate(4265.986 1797.5)" fill="none" stroke="#f0f1f5" stroke-width="7"/>
  </g>
</svg>
