<svg xmlns="http://www.w3.org/2000/svg" width="173.645" height="184.423" viewBox="0 0 173.645 184.423">
  <g id="Grupo_148" data-name="Grupo 148" transform="translate(-980.678 -383.788)">
    <g id="Grupo_141" data-name="Grupo 141" transform="translate(989.135 395.716)">
      <path id="Caminho_110" data-name="Caminho 110" d="M134.142,35.785V11.2a8.2,8.2,0,0,0-8.2-8.2H19.393a16.393,16.393,0,1,0,0,32.785H142.338a8.2,8.2,0,0,1,8.2,8.2V76.767H125.945a16.393,16.393,0,0,0,0,32.785h24.589a8.2,8.2,0,0,0,8.2-8.2V84.964a8.2,8.2,0,0,0-8.2-8.2" fill="none" stroke="#bdbec9" stroke-linecap="round" stroke-linejoin="round" stroke-width="5"/>
      <path id="Caminho_111" data-name="Caminho 111" d="M3,5V119.749a16.393,16.393,0,0,0,16.393,16.393H142.338a8.2,8.2,0,0,0,8.2-8.2V95.16" transform="translate(0 14.393)" fill="none" stroke="#bdbec9" stroke-linecap="round" stroke-linejoin="round" stroke-width="5"/>
    </g>
    <line id="Linha_13" data-name="Linha 13" x2="170" y2="181" transform="translate(982.5 385.5)" fill="none" stroke="#f0f1f5" stroke-width="5"/>
  </g>
</svg>
