<svg xmlns="http://www.w3.org/2000/svg" width="26.121" height="26.121" viewBox="0 0 26.121 26.121">
  <g id="Grupo_123" data-name="Grupo 123" transform="translate(-0.939 -0.939)">
    <path id="Caminho_94" data-name="Caminho 94" d="M19,5.6,22.6,2" transform="translate(3.4)" fill="none" stroke="#fff" stroke-linecap="round" stroke-linejoin="round" stroke-width="1.5"/>
    <path id="Caminho_95" data-name="Caminho 95" d="M2,22.6,5.6,19" transform="translate(0 3.4)" fill="none" stroke="#fff" stroke-linecap="round" stroke-linejoin="round" stroke-width="1.5"/>
    <path id="Caminho_96" data-name="Caminho 96" d="M6.961,21.96a2.88,2.88,0,0,0,4.08,0L13.8,19.2,6.6,12l-2.76,2.76a2.88,2.88,0,0,0,0,4.08Z" transform="translate(0.199 2)" fill="none" stroke="#fff" stroke-linecap="round" stroke-linejoin="round" stroke-width="1.5"/>
    <path id="Caminho_97" data-name="Caminho 97" d="M7.5,14l3-3" transform="translate(1.1 1.8)" fill="none" stroke="#fff" stroke-linecap="round" stroke-linejoin="round" stroke-width="1.5"/>
    <path id="Caminho_98" data-name="Caminho 98" d="M10.5,17l3-3" transform="translate(1.7 2.4)" fill="none" stroke="#fff" stroke-linecap="round" stroke-linejoin="round" stroke-width="1.5"/>
    <path id="Caminho_99" data-name="Caminho 99" d="M12,6.6l7.2,7.2,2.76-2.76a2.88,2.88,0,0,0,0-4.08l-3.12-3.12a2.88,2.88,0,0,0-4.08,0Z" transform="translate(2 0.199)" fill="none" stroke="#fff" stroke-linecap="round" stroke-linejoin="round" stroke-width="1.5"/>
  </g>
</svg>
